<mxfile host="app.diagrams.net" modified="2023-10-23T09:43:25.645Z" agent="Mozilla/5.0 (Macintosh; Intel Mac OS X 10_15_7) AppleWebKit/537.36 (KHTML, like Gecko) Chrome/118.0.0.0 Safari/537.36" etag="iG7wJQurqId0dnLGGYle" version="22.0.6" type="device">
  <diagram name="Page-1" id="6eY5iVOAq1A9t4ygQt2p">
    <mxGraphModel dx="1057" dy="595" grid="1" gridSize="10" guides="1" tooltips="1" connect="1" arrows="1" fold="1" page="1" pageScale="1" pageWidth="827" pageHeight="1169" math="0" shadow="0">
      <root>
        <mxCell id="0" />
        <mxCell id="1" parent="0" />
        <mxCell id="KRj9qOuApp-QcCRdubzG-1" value="Celery Broker" style="outlineConnect=0;dashed=0;verticalLabelPosition=bottom;verticalAlign=top;align=center;html=1;shape=mxgraph.aws3.queue;fillColor=#D9A741;gradientColor=none;" vertex="1" parent="1">
          <mxGeometry x="350" y="122" width="73.5" height="48" as="geometry" />
        </mxCell>
        <mxCell id="KRj9qOuApp-QcCRdubzG-5" value="Redis" style="outlineConnect=0;dashed=0;verticalLabelPosition=bottom;verticalAlign=top;align=center;html=1;shape=mxgraph.aws3.rds_db_instance_read_replica;fillColor=#2E73B8;gradientColor=none;" vertex="1" parent="1">
          <mxGeometry x="490" y="310" width="49.5" height="66" as="geometry" />
        </mxCell>
        <mxCell id="KRj9qOuApp-QcCRdubzG-28" value="" style="edgeStyle=orthogonalEdgeStyle;rounded=0;orthogonalLoop=1;jettySize=auto;html=1;" edge="1" parent="1" source="KRj9qOuApp-QcCRdubzG-25" target="KRj9qOuApp-QcCRdubzG-5">
          <mxGeometry relative="1" as="geometry" />
        </mxCell>
        <mxCell id="KRj9qOuApp-QcCRdubzG-38" value="update status" style="edgeLabel;html=1;align=center;verticalAlign=middle;resizable=0;points=[];" vertex="1" connectable="0" parent="KRj9qOuApp-QcCRdubzG-28">
          <mxGeometry x="0.2" y="1" relative="1" as="geometry">
            <mxPoint as="offset" />
          </mxGeometry>
        </mxCell>
        <mxCell id="KRj9qOuApp-QcCRdubzG-36" value="" style="edgeStyle=orthogonalEdgeStyle;rounded=0;orthogonalLoop=1;jettySize=auto;html=1;" edge="1" parent="1" source="KRj9qOuApp-QcCRdubzG-25" target="KRj9qOuApp-QcCRdubzG-1">
          <mxGeometry relative="1" as="geometry" />
        </mxCell>
        <mxCell id="KRj9qOuApp-QcCRdubzG-25" value="Celery Worker" style="outlineConnect=0;dashed=0;verticalLabelPosition=bottom;verticalAlign=top;align=center;html=1;shape=mxgraph.aws3.lambda_function;fillColor=#F58534;gradientColor=none;" vertex="1" parent="1">
          <mxGeometry x="480.25" y="110" width="69.75" height="72" as="geometry" />
        </mxCell>
        <mxCell id="KRj9qOuApp-QcCRdubzG-31" value="" style="edgeStyle=orthogonalEdgeStyle;rounded=0;orthogonalLoop=1;jettySize=auto;html=1;" edge="1" parent="1" source="KRj9qOuApp-QcCRdubzG-30" target="KRj9qOuApp-QcCRdubzG-1">
          <mxGeometry relative="1" as="geometry">
            <Array as="points">
              <mxPoint x="290" y="240" />
              <mxPoint x="290" y="146" />
            </Array>
          </mxGeometry>
        </mxCell>
        <mxCell id="KRj9qOuApp-QcCRdubzG-39" value="/start_crawl" style="edgeLabel;html=1;align=center;verticalAlign=middle;resizable=0;points=[];" vertex="1" connectable="0" parent="KRj9qOuApp-QcCRdubzG-31">
          <mxGeometry x="-0.0673" relative="1" as="geometry">
            <mxPoint as="offset" />
          </mxGeometry>
        </mxCell>
        <mxCell id="KRj9qOuApp-QcCRdubzG-35" style="edgeStyle=orthogonalEdgeStyle;rounded=0;orthogonalLoop=1;jettySize=auto;html=1;entryX=0;entryY=0.5;entryDx=0;entryDy=0;entryPerimeter=0;" edge="1" parent="1" source="KRj9qOuApp-QcCRdubzG-30" target="KRj9qOuApp-QcCRdubzG-5">
          <mxGeometry relative="1" as="geometry">
            <Array as="points">
              <mxPoint x="290" y="240" />
              <mxPoint x="290" y="343" />
            </Array>
          </mxGeometry>
        </mxCell>
        <mxCell id="KRj9qOuApp-QcCRdubzG-37" value="write/read status" style="edgeLabel;html=1;align=center;verticalAlign=middle;resizable=0;points=[];" vertex="1" connectable="0" parent="KRj9qOuApp-QcCRdubzG-35">
          <mxGeometry x="0.266" relative="1" as="geometry">
            <mxPoint x="1" as="offset" />
          </mxGeometry>
        </mxCell>
        <mxCell id="KRj9qOuApp-QcCRdubzG-40" value="/crawl_status" style="edgeLabel;html=1;align=center;verticalAlign=middle;resizable=0;points=[];" vertex="1" connectable="0" parent="KRj9qOuApp-QcCRdubzG-35">
          <mxGeometry x="-0.4395" y="-2" relative="1" as="geometry">
            <mxPoint as="offset" />
          </mxGeometry>
        </mxCell>
        <mxCell id="KRj9qOuApp-QcCRdubzG-30" value="FastAPI app" style="outlineConnect=0;dashed=0;verticalLabelPosition=bottom;verticalAlign=top;align=center;html=1;shape=mxgraph.aws3.instance;fillColor=#F58534;gradientColor=none;" vertex="1" parent="1">
          <mxGeometry x="160" y="210" width="60" height="63" as="geometry" />
        </mxCell>
        <mxCell id="KRj9qOuApp-QcCRdubzG-41" value="File System" style="outlineConnect=0;dashed=0;verticalLabelPosition=bottom;verticalAlign=top;align=center;html=1;shape=mxgraph.aws3.bucket;fillColor=#E05243;gradientColor=none;" vertex="1" parent="1">
          <mxGeometry x="620" y="230" width="60" height="61.5" as="geometry" />
        </mxCell>
        <mxCell id="KRj9qOuApp-QcCRdubzG-42" style="edgeStyle=orthogonalEdgeStyle;rounded=0;orthogonalLoop=1;jettySize=auto;html=1;entryX=0.5;entryY=0;entryDx=0;entryDy=0;entryPerimeter=0;" edge="1" parent="1" source="KRj9qOuApp-QcCRdubzG-25" target="KRj9qOuApp-QcCRdubzG-41">
          <mxGeometry relative="1" as="geometry" />
        </mxCell>
        <mxCell id="KRj9qOuApp-QcCRdubzG-43" value="Write HTML file" style="edgeLabel;html=1;align=center;verticalAlign=middle;resizable=0;points=[];" vertex="1" connectable="0" parent="KRj9qOuApp-QcCRdubzG-42">
          <mxGeometry x="0.4022" relative="1" as="geometry">
            <mxPoint as="offset" />
          </mxGeometry>
        </mxCell>
      </root>
    </mxGraphModel>
  </diagram>
</mxfile>
